<svg width="283" height="100" viewBox="0 0 283 100" fill="none" xmlns="http://www.w3.org/2000/svg">
<path fill-rule="evenodd" clip-rule="evenodd" d="M0 58.0165V57.9215L9.10067 48.3524V48.4158L0 58.0165ZM0 54.5628V27.3448L24.8921 27.3131L16.0768 36.9455L9.10067 36.9772V44.6768L0 54.5628Z" fill="#5CBA51"/>
<path fill-rule="evenodd" clip-rule="evenodd" d="M11.8911 59.8859H18.233V51.2357V37.4841L27.3654 27.5031L27.3971 32.1926V58.3333C27.3654 59.4106 27.3971 60.0443 26.8581 60.7414C26.319 61.4385 25.7165 61.9772 25.0189 62.3891C24.3213 62.7376 23.7188 63.0228 23.1797 63.1495C22.6407 63.308 22.3553 63.3713 22.3236 63.3713C22.3553 63.3713 22.6407 63.403 23.1797 63.4664C26.541 63.91 27.3337 65.8428 27.3654 68.6945V72.1166V84.379V95.5957C27.3654 98.4157 26.2873 99.9683 23.4017 100H22.3236H21.6577H5.16867H0V94.9937V82.7313V64.3219V64.1001V57.4461L9.10067 47.4968V58.0481V82.7313V82.8897V89.0051V90.4309H18.233V84.379V72.1166V67.8073H11.8911V59.8859Z" fill="#F2F2F2"/>
<path fill-rule="evenodd" clip-rule="evenodd" d="M40.9689 11.5223L45.5351 16.4019V38.6136V39.4057V60.6352H45.5034V67.511H45.5351V74.3234V75.1472V90.2613V93.113V93.1447V96.0281V98.8798H42.9032H36.4344V74.9888V74.3234V60.2866V42.5743V42.2575V16.3702C39.2249 13.3918 40.9689 11.5223 40.9689 11.5223Z" fill="#F2F2F2"/>
<path fill-rule="evenodd" clip-rule="evenodd" d="M40.9688 0V9.82257L32.6609 18.8213L40.9688 0Z" fill="#F2F2F2"/>
<path fill-rule="evenodd" clip-rule="evenodd" d="M40.9686 0V9.82257L49.2765 18.8213L40.9686 0Z" fill="#5CBA51"/>
<path d="M182.203 90.5078H63.9264V89.8741H182.203V90.5078Z" fill="#F2F2F2"/>
<path d="M68.7465 52.0279H70.554C72.3931 52.0279 73.7566 51.5843 74.6128 50.6654C75.4689 49.7782 75.9129 48.3524 75.9129 46.4195C75.9129 44.3917 75.5007 42.9341 74.7079 42.1103C73.8835 41.2548 72.52 40.8429 70.554 40.8429H68.7465V52.0279ZM68.7465 68.0926H70.3954C72.6468 68.0926 74.2006 67.649 75.025 66.8251C75.8812 65.9379 76.2934 64.417 76.2934 62.2624C76.2934 60.0444 75.8495 58.4601 74.9299 57.5095C74.042 56.5273 72.5517 56.052 70.4588 56.052H68.7465V68.0926ZM63.8949 72.7187V36.5336H70.5857C74.1371 36.5336 76.7056 37.2624 78.3228 38.7199C79.9083 40.1775 80.701 42.4905 80.701 45.6908C80.701 48.0989 80.3205 49.9683 79.5278 51.2991C78.7668 52.5983 77.4984 53.5171 75.8178 54.0558C77.7203 54.5311 79.0838 55.3866 79.9717 56.6857C80.8279 57.9848 81.2401 59.8543 81.2401 62.2941C81.2401 65.8746 80.4157 68.5045 78.7668 70.1838C77.1178 71.8632 74.5177 72.7187 70.9979 72.7187H63.8949ZM87.3284 72.7187V36.5336H101.851V40.9062H92.2116V51.6477H101.027V55.9569H92.2116V68.1876H101.851V72.7187H87.3284ZM116.089 45.8809L112.823 61.5336H119.355L116.089 45.8809ZM105.276 72.7187L113.806 36.5336H118.404L126.902 72.7187H121.955L120.211 65.5894H111.935L110.223 72.7187H105.276ZM136.573 52.2497H138.095C140.093 52.2497 141.488 51.8061 142.313 50.8872C143.137 49.9367 143.55 48.3207 143.55 45.9759C143.55 44.0114 143.169 42.6806 142.376 41.9202C141.584 41.1597 140.125 40.7795 137.969 40.7795H136.573V52.2497ZM136.573 55.0381V72.7187H131.69V36.5336H137.62C141.552 36.5336 144.342 37.2624 145.991 38.7199C147.672 40.1775 148.496 42.5856 148.496 45.9759C148.496 48.6375 147.925 50.7288 146.784 52.218C145.642 53.7073 143.93 54.5945 141.679 54.8796L150.304 72.7187H145.04L136.732 55.0381H136.573ZM158.96 72.7187V41.033H152.206V36.5336H170.63V41.033H163.875V72.7187H158.96ZM185.311 72.7187V36.5336H190.226V72.7187H185.311ZM197.868 72.7187V36.5336H202.403L212.011 61.6604V36.5336H216.672V72.7187H212.074L202.498 47.3701V72.7187H197.868ZM229.229 68.0292H231.766C234.525 68.0292 236.459 67.0469 237.569 65.0824C238.678 63.0862 239.249 59.5691 239.249 54.5311C239.249 49.5247 238.71 46.0076 237.6 44.0431C236.491 42.0786 234.525 41.0963 231.766 41.0963H229.229V68.0292ZM224.282 72.7187V36.5336H230.751C235.698 36.5336 239.154 37.8961 241.184 40.5894C243.181 43.2827 244.196 47.9405 244.196 54.5945C244.196 61.2485 243.181 65.9379 241.184 68.6312C239.154 71.3562 235.698 72.7187 230.751 72.7187H224.282ZM250.633 72.7187V36.5336H255.516V72.7187H250.633ZM271.181 45.8809L267.915 61.5336H274.447L271.181 45.8809ZM260.368 72.7187L268.866 36.5336H273.464L281.994 72.7187H277.015L275.303 65.5894H266.995L265.315 72.7187H260.368Z" fill="#F2F2F2"/>
<path fill-rule="evenodd" clip-rule="evenodd" d="M267.185 85.2652V89.2259H278.537L282.121 85.2652H267.185Z" fill="#F26E35"/>
<path fill-rule="evenodd" clip-rule="evenodd" d="M267.185 92.0775V96.0699H278.537L282.121 92.0775H267.185Z" fill="#3F9649"/>
<path d="M184.864 86.9011H191.523V88.6755C190.572 88.4221 189.621 88.327 188.733 88.327C188.131 88.327 187.591 88.4221 187.116 88.6122C186.672 88.834 186.291 89.1191 186.038 89.4994C185.752 89.8479 185.625 90.3232 185.625 90.8302C185.625 91.2738 185.721 91.6857 185.911 92.0976C186.101 92.4778 186.387 92.8264 186.704 93.1115C187.052 93.4284 187.433 93.6502 187.845 93.8086C188.257 93.9987 188.733 94.0621 189.177 94.0938C189.621 94.0938 190.033 94.0304 190.414 93.9037C190.826 93.7769 191.175 93.5868 191.523 93.3333L191.492 96.0583L192.633 96.3752L192.728 96.2484L192.697 86.9011H194.536L194.631 86.8061L194.124 85.8238H184.452L184.357 85.9189L184.864 86.9011ZM188.606 89.4994C188.765 89.4677 188.955 89.436 189.145 89.436C189.336 89.4043 189.557 89.4043 189.748 89.4043C190.065 89.4043 190.35 89.4043 190.636 89.4677C190.953 89.4994 191.238 89.5311 191.555 89.6261V90.7985C191.555 91.052 191.492 91.2738 191.428 91.4639C191.333 91.6857 191.238 91.8758 191.08 92.0342C190.953 92.1927 190.794 92.3194 190.604 92.4145L188.606 89.4994ZM189.97 92.7313C189.779 92.8264 189.557 92.8581 189.336 92.9214C189.114 92.9531 188.892 92.9531 188.67 92.9531C188.226 92.9531 187.909 92.8897 187.623 92.763C187.37 92.6363 187.148 92.4461 187.021 92.2243C186.894 92.0025 186.83 91.7491 186.83 91.4639C186.83 90.7034 187.179 90.1331 187.909 89.7529L189.97 92.7313ZM194.124 86.9011H195.582L195.551 96.0583L196.692 96.3752L196.787 96.2484L196.756 86.9011H198.595L198.69 86.8061L198.182 85.8238H196.724C196.629 85.1267 196.47 84.5247 196.185 83.9861C195.931 83.4157 195.614 82.9404 195.234 82.5285C194.853 82.1166 194.409 81.7997 193.965 81.5779C193.489 81.3878 193.014 81.2611 192.506 81.2611C192.031 81.2611 191.65 81.3561 191.302 81.5146C190.984 81.7047 190.731 81.9265 190.572 82.2117C190.414 82.4968 190.319 82.8454 190.319 83.1939C190.319 83.5108 190.382 83.8276 190.54 84.1445C190.667 84.4297 190.858 84.7148 191.08 85L192.189 85.507L192.253 85.3802C192.063 85.1267 191.904 84.8416 191.777 84.5564C191.65 84.2712 191.587 83.9861 191.587 83.6692C191.587 83.4157 191.65 83.1939 191.745 83.0038C191.872 82.782 192.031 82.6236 192.253 82.4968C192.475 82.3701 192.76 82.3067 193.077 82.275C193.553 82.275 193.965 82.4018 194.314 82.6869C194.663 82.9404 194.948 83.3207 195.17 83.8593C195.392 84.3663 195.519 85.0317 195.582 85.8238H193.711L193.648 85.9189L194.124 86.9011ZM199.927 87.8517C200.402 87.5349 200.846 87.3131 201.258 87.1546C201.671 86.9962 202.051 86.9011 202.4 86.9011C202.622 86.9011 202.844 86.9645 203.002 87.0596C203.193 87.1229 203.351 87.2814 203.446 87.4398C203.541 87.5982 203.605 87.7883 203.605 87.9785C203.605 88.2636 203.51 88.4854 203.383 88.7389C203.224 88.9607 203.034 89.1508 202.78 89.3409C202.4 89.3409 202.019 89.4043 201.575 89.4994C201.131 89.6261 200.688 89.7845 200.18 89.9747V90.0697L200.941 91.2738C201.353 91.1153 201.702 90.9886 202.019 90.8935C202.336 90.7985 202.59 90.7668 202.844 90.7668C203.319 90.7668 203.668 90.8935 203.922 91.147C204.176 91.4005 204.302 91.7491 204.302 92.1927C204.302 92.4461 204.239 92.6996 204.144 92.9214C204.017 93.1432 203.859 93.3017 203.668 93.4918C203.478 93.6502 203.256 93.7769 203.002 93.8403C202.78 93.9354 202.527 93.9987 202.273 93.9987C201.575 93.9987 200.878 93.6819 200.244 93.1115C199.609 92.5412 198.975 91.6857 198.404 90.545L197.802 90.9252C197.802 91.1787 198.626 92.4778 198.785 92.7313C199.134 93.27 199.514 93.7136 199.927 94.0938C200.339 94.5057 200.783 94.7909 201.258 95.0127C201.734 95.2028 202.241 95.3295 202.78 95.3295C203.288 95.3295 203.7 95.2345 204.08 95.0127C204.461 94.8226 204.778 94.5374 205 94.1889C205.222 93.8086 205.349 93.3967 205.349 92.9214C205.349 92.7313 205.349 92.5729 205.349 92.4145C205.317 92.2243 205.285 92.0659 205.222 91.9392L205.254 91.9075C205.476 92.0659 205.698 92.1927 205.951 92.2877C206.237 92.3511 206.49 92.3828 206.776 92.3828C206.934 92.3828 207.093 92.3828 207.251 92.3828C207.41 92.3511 207.537 92.3194 207.664 92.2877V96.0583L208.805 96.3752L208.9 96.2484L208.869 86.9011H211.754L211.723 96.0583L212.864 96.3752L212.959 96.2484L212.927 86.9011H214.767L214.862 86.8061L214.354 85.8238H205.317L205.222 85.9189L205.729 86.9011H207.695V90.6717C207.442 90.8619 207.156 90.9886 206.871 91.052C206.586 91.147 206.3 91.1787 205.983 91.1787C205.698 91.1787 205.444 91.147 205.254 91.0837C205.032 91.0203 204.873 90.9252 204.746 90.7985C204.651 90.7034 204.556 90.6084 204.429 90.4816C204.334 90.3866 204.207 90.2915 204.049 90.1965C204.239 90.0063 204.366 89.7845 204.461 89.5627C204.556 89.3093 204.588 89.0558 204.588 88.7389C204.588 88.3904 204.524 88.0418 204.429 87.725C204.302 87.4081 204.144 87.0913 203.89 86.8061C203.605 86.4259 203.256 86.1407 202.876 85.9506C202.495 85.7288 202.083 85.6337 201.639 85.6337C201.258 85.6337 200.846 85.7288 200.434 85.8872C200.022 86.0456 199.578 86.2674 199.134 86.5843V86.6477L199.927 87.8517ZM214.354 86.9011H220.411V88.6122C220.411 88.6755 220.379 88.7706 220.316 88.8023C220.284 88.8657 220.189 88.8973 220.094 88.8973H218.73C218.033 88.8973 217.43 88.9924 216.923 89.1825C216.416 89.3726 216.003 89.6895 215.718 90.0697C215.401 90.4816 215.274 90.9569 215.242 91.5589C215.274 92.0342 215.337 92.5095 215.528 92.9531C215.718 93.3967 216.003 93.7769 216.352 94.1572C216.701 94.5057 217.145 94.7909 217.652 95.0127C218.16 95.2345 218.73 95.3295 219.365 95.3295C220.03 95.3612 220.665 95.2028 221.267 94.9176C221.87 94.6325 222.409 94.1889 222.948 93.5551V93.4601L222.123 92.5095C221.552 93.0799 221.013 93.4918 220.474 93.7769C219.935 94.0304 219.365 94.1889 218.794 94.1889C218.35 94.1889 217.938 94.0938 217.589 93.9037C217.24 93.7453 216.986 93.4918 216.796 93.1749C216.606 92.8897 216.511 92.5412 216.511 92.1293C216.511 91.4639 216.796 90.9569 217.367 90.6084C217.938 90.2598 218.825 90.0697 219.999 90.0697H221.457L221.552 89.9747V86.9011H223.709L223.804 86.8061L223.328 85.8238H213.974L213.879 85.9189L214.354 86.9011ZM228.148 86.9011H233.951V88.1052C233.951 88.2003 233.919 88.2636 233.888 88.327C233.824 88.3587 233.792 88.3587 233.697 88.3587H232.144C231.7 88.3587 231.319 88.3904 230.939 88.4221C230.59 88.4854 230.273 88.5171 230.019 88.6122C229.638 88.7389 229.385 88.929 229.195 89.1508C229.036 89.3726 228.941 89.6578 228.941 89.9747C228.941 90.1965 229.004 90.4499 229.131 90.7034C229.226 90.9569 229.385 91.2104 229.575 91.4639C229.892 91.8758 230.209 92.161 230.526 92.3194C230.875 92.4778 231.192 92.5729 231.509 92.5729C231.7 92.5729 231.89 92.5412 232.112 92.4778C232.334 92.4145 232.524 92.3828 232.778 92.2877C233 92.2243 233.222 92.161 233.444 92.0976C233.666 92.0659 233.856 92.0342 234.078 92.0342C234.331 92.0342 234.522 92.0976 234.649 92.1927C234.744 92.2877 234.807 92.4145 234.807 92.5412C234.807 92.8581 234.712 93.1432 234.49 93.4284C234.268 93.7136 233.951 93.9671 233.602 94.1572C233.222 94.379 232.809 94.5374 232.365 94.6325C232.144 94.379 231.89 94.1572 231.604 93.9987C231.319 93.8403 230.97 93.7453 230.558 93.7453C230.368 93.7453 230.209 93.7769 230.082 93.872C229.987 93.9354 229.892 93.9987 229.829 94.1255C229.765 94.2205 229.734 94.3156 229.734 94.4107C229.734 94.6008 229.765 94.7592 229.829 94.9176C229.892 95.0761 229.987 95.2345 230.114 95.3929C230.304 95.6147 230.495 95.7731 230.717 95.8682C230.907 95.9316 231.161 95.9633 231.478 95.9633C231.573 95.9633 231.7 95.9633 231.826 95.9633C231.922 95.9316 232.048 95.9316 232.175 95.8999C232.397 96.4385 232.651 96.8821 232.905 97.2307C233.158 97.5792 233.412 97.8327 233.697 98.0228C233.983 98.2446 234.268 98.4031 234.585 98.4981C234.902 98.5932 235.219 98.6249 235.6 98.6565H235.663L236.139 97.3257C235.314 97.199 234.585 97.0406 234.046 96.7871C233.475 96.5653 233.063 96.2484 232.841 95.8365C233.444 95.6781 233.983 95.488 234.427 95.2662C234.871 95.0127 235.219 94.7592 235.441 94.4423C235.695 94.1255 235.79 93.7769 235.822 93.4284C235.822 93.1749 235.758 92.8897 235.663 92.6363C235.568 92.3511 235.441 92.0659 235.219 91.7807C234.997 91.4956 234.744 91.2421 234.458 91.052C234.205 90.8935 233.919 90.7985 233.57 90.7985C233.348 90.7985 233.095 90.8302 232.873 90.8935C232.619 90.9252 232.397 90.9886 232.175 91.052C231.953 91.147 231.731 91.1787 231.509 91.2421C231.319 91.3055 231.097 91.3055 230.907 91.3371C230.621 91.3371 230.431 91.2738 230.304 91.1787C230.146 91.052 230.082 90.8935 230.082 90.7034C230.082 90.545 230.114 90.3866 230.209 90.2281C230.273 90.1014 230.431 89.9747 230.621 89.8479C230.843 89.7529 231.097 89.6578 231.446 89.6261C231.795 89.5627 232.239 89.5311 232.778 89.5311C233 89.5311 233.253 89.5311 233.539 89.5311C233.792 89.5311 234.046 89.5311 234.3 89.5311C234.585 89.5311 234.807 89.5311 234.997 89.5311L235.092 89.436V86.9011H237.058L237.122 86.8061L236.646 85.8238H227.736L227.641 85.9189L228.148 86.9011ZM241.244 86.9011H247.554V88.1052C247.554 88.2003 247.554 88.2636 247.491 88.327C247.459 88.3587 247.396 88.3587 247.301 88.3587H246.127C245.684 88.3587 245.271 88.3904 244.922 88.4221C244.574 88.4854 244.257 88.5171 244.003 88.6122C243.622 88.7389 243.337 88.929 243.178 89.1508C242.988 89.4043 242.925 89.6895 242.925 90.0063C242.925 90.2281 242.988 90.4816 243.083 90.7034C243.178 90.9569 243.305 91.2104 243.527 91.4639C243.813 91.8758 244.13 92.161 244.415 92.3511C244.732 92.5412 245.018 92.6363 245.335 92.6363C245.588 92.6363 245.874 92.6046 246.191 92.5412C246.508 92.5095 246.793 92.4461 247.11 92.3828C247.428 92.3194 247.713 92.2877 247.967 92.2877C248.189 92.2877 248.347 92.3194 248.474 92.4145C248.601 92.4778 248.664 92.6046 248.664 92.763C248.664 92.9848 248.569 93.1749 248.442 93.3967C248.315 93.5868 248.157 93.7769 247.935 93.9671C247.713 94.1255 247.459 94.2522 247.174 94.379C246.888 94.474 246.603 94.5374 246.286 94.5374C245.779 94.5374 245.303 94.4107 244.827 94.1889C244.383 93.9354 243.939 93.5868 243.527 93.1749C243.115 92.7313 242.703 92.1927 242.322 91.5589L241.752 91.9392V92.0342C242.195 92.8264 242.703 93.4918 243.21 94.0621C243.749 94.6325 244.288 95.0444 244.891 95.3612C245.462 95.6464 246.096 95.8048 246.762 95.8048C247.142 95.8048 247.523 95.7415 247.871 95.6147C248.189 95.488 248.506 95.2979 248.759 95.0761C249.013 94.8543 249.203 94.6325 249.362 94.3473C249.52 94.0938 249.584 93.8086 249.584 93.5551C249.584 93.3017 249.552 93.0482 249.52 92.8264C249.457 92.6046 249.394 92.4145 249.298 92.1927C249.108 91.7807 248.886 91.4956 248.601 91.2738C248.315 91.052 247.935 90.9569 247.491 90.9569C247.142 90.9569 246.825 90.9886 246.508 91.052C246.191 91.1153 245.905 91.1787 245.62 91.2421C245.335 91.2738 245.081 91.3055 244.859 91.3371C244.605 91.3371 244.415 91.2738 244.257 91.1787C244.13 91.052 244.066 90.8935 244.066 90.7034C244.066 90.545 244.098 90.3866 244.161 90.2281C244.257 90.1014 244.383 89.9747 244.605 89.8479C244.796 89.7529 245.081 89.6578 245.43 89.6261C245.779 89.5627 246.223 89.5311 246.73 89.5311C247.079 89.5311 247.428 89.5311 247.713 89.5311C248.03 89.5311 248.315 89.5311 248.601 89.5311L248.728 89.436L248.696 86.9011H250.662L250.757 86.8061L250.25 85.8238H240.832L240.769 85.9189L241.244 86.9011ZM237.09 86.9011H238.517L238.485 96.0583L239.627 96.3752L239.754 96.2484L239.69 86.9011H241.561L241.625 86.8061L241.149 85.8238H239.532C239.437 85.6971 239.342 85.5387 239.278 85.3485C239.246 85.1584 239.215 84.9683 239.215 84.7148C239.215 84.2712 239.342 83.891 239.564 83.5425C239.786 83.1622 240.134 82.9087 240.578 82.6869C240.99 82.4651 241.53 82.3701 242.164 82.3701C242.83 82.3701 243.464 82.4968 244.098 82.7503C244.732 82.9721 245.335 83.3523 245.905 83.7959C246.508 84.2395 247.079 84.7782 247.65 85.4119H247.713L248.093 84.9049C247.047 83.7009 245.969 82.782 244.859 82.1483C243.749 81.5146 242.639 81.1977 241.466 81.1977C240.895 81.1977 240.42 81.2928 239.976 81.4512C239.564 81.6096 239.215 81.7997 238.898 82.0849C238.612 82.3384 238.422 82.6553 238.263 82.9721C238.105 83.3207 238.041 83.6692 238.041 84.0494C238.041 84.3663 238.105 84.6831 238.232 85C238.327 85.2852 238.485 85.5703 238.707 85.8238H236.678L236.583 85.9189L237.09 86.9011ZM249.711 86.9011H252.343C252.501 87.1229 252.66 87.3131 252.755 87.5349C252.882 87.7567 252.913 87.9785 252.913 88.2003C252.913 88.4854 252.818 88.7072 252.596 88.8973C252.406 89.1191 252.121 89.2776 251.74 89.436C251.391 89.5627 250.979 89.7212 250.503 89.8479L250.408 90.038C250.567 90.545 250.789 91.0203 251.042 91.4639C251.296 91.9392 251.582 92.3194 251.93 92.6679C252.247 93.0165 252.628 93.27 253.04 93.4601C253.452 93.6819 253.928 93.7769 254.435 93.7769C254.816 93.7769 255.165 93.7453 255.545 93.6185C255.894 93.5551 256.243 93.365 256.56 93.1432L256.496 96.0583L257.67 96.3752L257.765 96.2484L257.733 86.9011H259.572L259.636 86.8061L259.16 85.8238H249.298L249.235 85.9189L249.711 86.9011ZM256.56 86.9011V90.545C256.56 90.8935 256.496 91.1787 256.37 91.4322C256.243 91.6857 256.084 91.8758 255.862 92.0342C255.545 92.2243 255.26 92.3828 254.943 92.4461C254.657 92.5412 254.34 92.5729 254.023 92.5729C253.643 92.5729 253.326 92.5095 253.04 92.3828C252.755 92.256 252.533 92.0976 252.374 91.9075C252.184 91.7491 252.057 91.5589 251.994 91.4005C251.899 91.2104 251.867 91.0837 251.867 91.0203C251.867 90.9569 251.899 90.8935 251.93 90.8619C251.962 90.8302 252.057 90.7668 252.152 90.7351C252.596 90.5767 252.945 90.4183 253.23 90.2281C253.516 90.0697 253.738 89.8479 253.865 89.6261C253.991 89.4043 254.055 89.1191 254.055 88.8023C254.055 88.5488 253.991 88.2636 253.896 87.9468C253.769 87.6299 253.579 87.2814 253.357 86.9011H256.56ZM259.16 86.9011H260.619L260.587 96.0583L261.729 96.3752L261.824 96.2484L261.792 86.9011H263.631L263.726 86.8061L263.219 85.8238H258.748L258.684 85.9189L259.16 86.9011Z" fill="#F2F2F2"/>
<path d="M184.864 86.9011H191.523V88.6755C190.572 88.4221 189.621 88.327 188.733 88.327C188.131 88.327 187.591 88.4221 187.116 88.6122C186.672 88.834 186.291 89.1191 186.038 89.4994C185.752 89.8479 185.625 90.3232 185.625 90.8302C185.625 91.2738 185.721 91.6857 185.911 92.0976C186.101 92.4778 186.387 92.8264 186.704 93.1115C187.052 93.4284 187.433 93.6502 187.845 93.8086C188.257 93.9987 188.733 94.0621 189.177 94.0938C189.621 94.0938 190.033 94.0304 190.414 93.9037C190.826 93.7769 191.175 93.5868 191.523 93.3333L191.492 96.0583L192.633 96.3752L192.728 96.2484L192.697 86.9011H194.536L194.631 86.8061L194.124 85.8238H184.452L184.357 85.9189L184.864 86.9011ZM188.606 89.4994C188.765 89.4677 188.955 89.436 189.145 89.436C189.336 89.4043 189.557 89.4043 189.748 89.4043C190.065 89.4043 190.35 89.4043 190.636 89.4677C190.953 89.4994 191.238 89.5311 191.555 89.6261V90.7985C191.555 91.052 191.492 91.2738 191.428 91.4639C191.333 91.6857 191.238 91.8758 191.08 92.0342C190.953 92.1927 190.794 92.3194 190.604 92.4145L188.606 89.4994ZM189.97 92.7313C189.779 92.8264 189.557 92.8581 189.336 92.9214C189.114 92.9531 188.892 92.9531 188.67 92.9531C188.226 92.9531 187.909 92.8897 187.623 92.763C187.37 92.6363 187.148 92.4461 187.021 92.2243C186.894 92.0025 186.83 91.7491 186.83 91.4639C186.83 90.7034 187.179 90.1331 187.909 89.7529L189.97 92.7313ZM194.124 86.9011H195.582L195.551 96.0583L196.692 96.3752L196.787 96.2484L196.756 86.9011H198.595L198.69 86.8061L198.182 85.8238H196.724C196.629 85.1267 196.47 84.5247 196.185 83.9861C195.931 83.4157 195.614 82.9404 195.234 82.5285C194.853 82.1166 194.409 81.7997 193.965 81.5779C193.489 81.3878 193.014 81.2611 192.506 81.2611C192.031 81.2611 191.65 81.3561 191.302 81.5146C190.984 81.7047 190.731 81.9265 190.572 82.2117C190.414 82.4968 190.319 82.8454 190.319 83.1939C190.319 83.5108 190.382 83.8276 190.54 84.1445C190.667 84.4297 190.858 84.7148 191.08 85L192.189 85.507L192.253 85.3802C192.063 85.1267 191.904 84.8416 191.777 84.5564C191.65 84.2712 191.587 83.9861 191.587 83.6692C191.587 83.4157 191.65 83.1939 191.745 83.0038C191.872 82.782 192.031 82.6236 192.253 82.4968C192.475 82.3701 192.76 82.3067 193.077 82.275C193.553 82.275 193.965 82.4018 194.314 82.6869C194.663 82.9404 194.948 83.3207 195.17 83.8593C195.392 84.3663 195.519 85.0317 195.582 85.8238H193.711L193.648 85.9189L194.124 86.9011ZM199.927 87.8517C200.402 87.5349 200.846 87.3131 201.258 87.1546C201.671 86.9962 202.051 86.9011 202.4 86.9011C202.622 86.9011 202.844 86.9645 203.002 87.0596C203.193 87.1229 203.351 87.2814 203.446 87.4398C203.541 87.5982 203.605 87.7883 203.605 87.9785C203.605 88.2636 203.51 88.4854 203.383 88.7389C203.224 88.9607 203.034 89.1508 202.78 89.3409C202.4 89.3409 202.019 89.4043 201.575 89.4994C201.131 89.6261 200.688 89.7845 200.18 89.9747V90.0697L200.941 91.2738C201.353 91.1153 201.702 90.9886 202.019 90.8935C202.336 90.7985 202.59 90.7668 202.844 90.7668C203.319 90.7668 203.668 90.8935 203.922 91.147C204.176 91.4005 204.302 91.7491 204.302 92.1927C204.302 92.4461 204.239 92.6996 204.144 92.9214C204.017 93.1432 203.859 93.3017 203.668 93.4918C203.478 93.6502 203.256 93.7769 203.002 93.8403C202.78 93.9354 202.527 93.9987 202.273 93.9987C201.575 93.9987 200.878 93.6819 200.244 93.1115C199.609 92.5412 198.975 91.6857 198.404 90.545L197.802 90.9252C197.802 91.1787 198.626 92.4778 198.785 92.7313C199.134 93.27 199.514 93.7136 199.927 94.0938C200.339 94.5057 200.783 94.7909 201.258 95.0127C201.734 95.2028 202.241 95.3295 202.78 95.3295C203.288 95.3295 203.7 95.2345 204.08 95.0127C204.461 94.8226 204.778 94.5374 205 94.1889C205.222 93.8086 205.349 93.3967 205.349 92.9214C205.349 92.7313 205.349 92.5729 205.349 92.4145C205.317 92.2243 205.285 92.0659 205.222 91.9392L205.254 91.9075C205.476 92.0659 205.698 92.1927 205.951 92.2877C206.237 92.3511 206.49 92.3828 206.776 92.3828C206.934 92.3828 207.093 92.3828 207.251 92.3828C207.41 92.3511 207.537 92.3194 207.664 92.2877V96.0583L208.805 96.3752L208.9 96.2484L208.869 86.9011H211.754L211.723 96.0583L212.864 96.3752L212.959 96.2484L212.927 86.9011H214.767L214.862 86.8061L214.354 85.8238H205.317L205.222 85.9189L205.729 86.9011H207.695V90.6717C207.442 90.8619 207.156 90.9886 206.871 91.052C206.586 91.147 206.3 91.1787 205.983 91.1787C205.698 91.1787 205.444 91.147 205.254 91.0837C205.032 91.0203 204.873 90.9252 204.746 90.7985C204.651 90.7034 204.556 90.6084 204.429 90.4816C204.334 90.3866 204.207 90.2915 204.049 90.1965C204.239 90.0063 204.366 89.7845 204.461 89.5627C204.556 89.3093 204.588 89.0558 204.588 88.7389C204.588 88.3904 204.524 88.0418 204.429 87.725C204.302 87.4081 204.144 87.0913 203.89 86.8061C203.605 86.4259 203.256 86.1407 202.876 85.9506C202.495 85.7288 202.083 85.6337 201.639 85.6337C201.258 85.6337 200.846 85.7288 200.434 85.8872C200.022 86.0456 199.578 86.2674 199.134 86.5843V86.6477L199.927 87.8517ZM214.354 86.9011H220.411V88.6122C220.411 88.6755 220.379 88.7706 220.316 88.8023C220.284 88.8657 220.189 88.8973 220.094 88.8973H218.73C218.033 88.8973 217.43 88.9924 216.923 89.1825C216.416 89.3726 216.003 89.6895 215.718 90.0697C215.401 90.4816 215.274 90.9569 215.242 91.5589C215.274 92.0342 215.337 92.5095 215.528 92.9531C215.718 93.3967 216.003 93.7769 216.352 94.1572C216.701 94.5057 217.145 94.7909 217.652 95.0127C218.16 95.2345 218.73 95.3295 219.365 95.3295C220.03 95.3612 220.665 95.2028 221.267 94.9176C221.87 94.6325 222.409 94.1889 222.948 93.5551V93.4601L222.123 92.5095C221.552 93.0799 221.013 93.4918 220.474 93.7769C219.935 94.0304 219.365 94.1889 218.794 94.1889C218.35 94.1889 217.938 94.0938 217.589 93.9037C217.24 93.7453 216.986 93.4918 216.796 93.1749C216.606 92.8897 216.511 92.5412 216.511 92.1293C216.511 91.4639 216.796 90.9569 217.367 90.6084C217.938 90.2598 218.825 90.0697 219.999 90.0697H221.457L221.552 89.9747V86.9011H223.709L223.804 86.8061L223.328 85.8238H213.974L213.879 85.9189L214.354 86.9011ZM228.148 86.9011H233.951V88.1052C233.951 88.2003 233.919 88.2636 233.888 88.327C233.824 88.3587 233.792 88.3587 233.697 88.3587H232.144C231.7 88.3587 231.319 88.3904 230.939 88.4221C230.59 88.4854 230.273 88.5171 230.019 88.6122C229.638 88.7389 229.385 88.929 229.195 89.1508C229.036 89.3726 228.941 89.6578 228.941 89.9747C228.941 90.1965 229.004 90.4499 229.131 90.7034C229.226 90.9569 229.385 91.2104 229.575 91.4639C229.892 91.8758 230.209 92.161 230.526 92.3194C230.875 92.4778 231.192 92.5729 231.509 92.5729C231.7 92.5729 231.89 92.5412 232.112 92.4778C232.334 92.4145 232.524 92.3828 232.778 92.2877C233 92.2243 233.222 92.161 233.444 92.0976C233.666 92.0659 233.856 92.0342 234.078 92.0342C234.331 92.0342 234.522 92.0976 234.649 92.1927C234.744 92.2877 234.807 92.4145 234.807 92.5412C234.807 92.8581 234.712 93.1432 234.49 93.4284C234.268 93.7136 233.951 93.9671 233.602 94.1572C233.222 94.379 232.809 94.5374 232.365 94.6325C232.144 94.379 231.89 94.1572 231.604 93.9987C231.319 93.8403 230.97 93.7453 230.558 93.7453C230.368 93.7453 230.209 93.7769 230.082 93.872C229.987 93.9354 229.892 93.9987 229.829 94.1255C229.765 94.2205 229.734 94.3156 229.734 94.4107C229.734 94.6008 229.765 94.7592 229.829 94.9176C229.892 95.0761 229.987 95.2345 230.114 95.3929C230.304 95.6147 230.495 95.7731 230.717 95.8682C230.907 95.9316 231.161 95.9633 231.478 95.9633C231.573 95.9633 231.7 95.9633 231.826 95.9633C231.922 95.9316 232.048 95.9316 232.175 95.8999C232.397 96.4385 232.651 96.8821 232.905 97.2307C233.158 97.5792 233.412 97.8327 233.697 98.0228C233.983 98.2446 234.268 98.4031 234.585 98.4981C234.902 98.5932 235.219 98.6249 235.6 98.6565H235.663L236.139 97.3257C235.314 97.199 234.585 97.0406 234.046 96.7871C233.475 96.5653 233.063 96.2484 232.841 95.8365C233.444 95.6781 233.983 95.488 234.427 95.2662C234.871 95.0127 235.219 94.7592 235.441 94.4423C235.695 94.1255 235.79 93.7769 235.822 93.4284C235.822 93.1749 235.758 92.8897 235.663 92.6363C235.568 92.3511 235.441 92.0659 235.219 91.7807C234.997 91.4956 234.744 91.2421 234.458 91.052C234.205 90.8935 233.919 90.7985 233.57 90.7985C233.348 90.7985 233.095 90.8302 232.873 90.8935C232.619 90.9252 232.397 90.9886 232.175 91.052C231.953 91.147 231.731 91.1787 231.509 91.2421C231.319 91.3055 231.097 91.3055 230.907 91.3371C230.621 91.3371 230.431 91.2738 230.304 91.1787C230.146 91.052 230.082 90.8935 230.082 90.7034C230.082 90.545 230.114 90.3866 230.209 90.2281C230.273 90.1014 230.431 89.9747 230.621 89.8479C230.843 89.7529 231.097 89.6578 231.446 89.6261C231.795 89.5627 232.239 89.5311 232.778 89.5311C233 89.5311 233.253 89.5311 233.539 89.5311C233.792 89.5311 234.046 89.5311 234.3 89.5311C234.585 89.5311 234.807 89.5311 234.997 89.5311L235.092 89.436V86.9011H237.058L237.122 86.8061L236.646 85.8238H227.736L227.641 85.9189L228.148 86.9011ZM241.244 86.9011H247.554V88.1052C247.554 88.2003 247.554 88.2636 247.491 88.327C247.459 88.3587 247.396 88.3587 247.301 88.3587H246.127C245.684 88.3587 245.271 88.3904 244.922 88.4221C244.574 88.4854 244.257 88.5171 244.003 88.6122C243.622 88.7389 243.337 88.929 243.178 89.1508C242.988 89.4043 242.925 89.6895 242.925 90.0063C242.925 90.2281 242.988 90.4816 243.083 90.7034C243.178 90.9569 243.305 91.2104 243.527 91.4639C243.813 91.8758 244.13 92.161 244.415 92.3511C244.732 92.5412 245.018 92.6363 245.335 92.6363C245.588 92.6363 245.874 92.6046 246.191 92.5412C246.508 92.5095 246.793 92.4461 247.11 92.3828C247.428 92.3194 247.713 92.2877 247.967 92.2877C248.189 92.2877 248.347 92.3194 248.474 92.4145C248.601 92.4778 248.664 92.6046 248.664 92.763C248.664 92.9848 248.569 93.1749 248.442 93.3967C248.315 93.5868 248.157 93.7769 247.935 93.9671C247.713 94.1255 247.459 94.2522 247.174 94.379C246.888 94.474 246.603 94.5374 246.286 94.5374C245.779 94.5374 245.303 94.4107 244.827 94.1889C244.383 93.9354 243.939 93.5868 243.527 93.1749C243.115 92.7313 242.703 92.1927 242.322 91.5589L241.752 91.9392V92.0342C242.195 92.8264 242.703 93.4918 243.21 94.0621C243.749 94.6325 244.288 95.0444 244.891 95.3612C245.462 95.6464 246.096 95.8048 246.762 95.8048C247.142 95.8048 247.523 95.7415 247.871 95.6147C248.189 95.488 248.506 95.2979 248.759 95.0761C249.013 94.8543 249.203 94.6325 249.362 94.3473C249.52 94.0938 249.584 93.8086 249.584 93.5551C249.584 93.3017 249.552 93.0482 249.52 92.8264C249.457 92.6046 249.394 92.4145 249.298 92.1927C249.108 91.7807 248.886 91.4956 248.601 91.2738C248.315 91.052 247.935 90.9569 247.491 90.9569C247.142 90.9569 246.825 90.9886 246.508 91.052C246.191 91.1153 245.905 91.1787 245.62 91.2421C245.335 91.2738 245.081 91.3055 244.859 91.3371C244.605 91.3371 244.415 91.2738 244.257 91.1787C244.13 91.052 244.066 90.8935 244.066 90.7034C244.066 90.545 244.098 90.3866 244.161 90.2281C244.257 90.1014 244.383 89.9747 244.605 89.8479C244.796 89.7529 245.081 89.6578 245.43 89.6261C245.779 89.5627 246.223 89.5311 246.73 89.5311C247.079 89.5311 247.428 89.5311 247.713 89.5311C248.03 89.5311 248.315 89.5311 248.601 89.5311L248.728 89.436L248.696 86.9011H250.662L250.757 86.8061L250.25 85.8238H240.832L240.769 85.9189L241.244 86.9011ZM237.09 86.9011H238.517L238.485 96.0583L239.627 96.3752L239.754 96.2484L239.69 86.9011H241.561L241.625 86.8061L241.149 85.8238H239.532C239.437 85.6971 239.342 85.5387 239.278 85.3485C239.246 85.1584 239.215 84.9683 239.215 84.7148C239.215 84.2712 239.342 83.891 239.564 83.5425C239.786 83.1622 240.134 82.9087 240.578 82.6869C240.99 82.4651 241.53 82.3701 242.164 82.3701C242.83 82.3701 243.464 82.4968 244.098 82.7503C244.732 82.9721 245.335 83.3523 245.905 83.7959C246.508 84.2395 247.079 84.7782 247.65 85.4119H247.713L248.093 84.9049C247.047 83.7009 245.969 82.782 244.859 82.1483C243.749 81.5146 242.639 81.1977 241.466 81.1977C240.895 81.1977 240.42 81.2928 239.976 81.4512C239.564 81.6096 239.215 81.7997 238.898 82.0849C238.612 82.3384 238.422 82.6553 238.263 82.9721C238.105 83.3207 238.041 83.6692 238.041 84.0494C238.041 84.3663 238.105 84.6831 238.232 85C238.327 85.2852 238.485 85.5703 238.707 85.8238H236.678L236.583 85.9189L237.09 86.9011ZM249.711 86.9011H252.343C252.501 87.1229 252.66 87.3131 252.755 87.5349C252.882 87.7567 252.913 87.9785 252.913 88.2003C252.913 88.4854 252.818 88.7072 252.596 88.8973C252.406 89.1191 252.121 89.2776 251.74 89.436C251.391 89.5627 250.979 89.7212 250.503 89.8479L250.408 90.038C250.567 90.545 250.789 91.0203 251.042 91.4639C251.296 91.9392 251.582 92.3194 251.93 92.6679C252.247 93.0165 252.628 93.27 253.04 93.4601C253.452 93.6819 253.928 93.7769 254.435 93.7769C254.816 93.7769 255.165 93.7453 255.545 93.6185C255.894 93.5551 256.243 93.365 256.56 93.1432L256.496 96.0583L257.67 96.3752L257.765 96.2484L257.733 86.9011H259.572L259.636 86.8061L259.16 85.8238H249.298L249.235 85.9189L249.711 86.9011ZM256.56 86.9011V90.545C256.56 90.8935 256.496 91.1787 256.37 91.4322C256.243 91.6857 256.084 91.8758 255.862 92.0342C255.545 92.2243 255.26 92.3828 254.943 92.4461C254.657 92.5412 254.34 92.5729 254.023 92.5729C253.643 92.5729 253.326 92.5095 253.04 92.3828C252.755 92.256 252.533 92.0976 252.374 91.9075C252.184 91.7491 252.057 91.5589 251.994 91.4005C251.899 91.2104 251.867 91.0837 251.867 91.0203C251.867 90.9569 251.899 90.8935 251.93 90.8619C251.962 90.8302 252.057 90.7668 252.152 90.7351C252.596 90.5767 252.945 90.4183 253.23 90.2281C253.516 90.0697 253.738 89.8479 253.865 89.6261C253.991 89.4043 254.055 89.1191 254.055 88.8023C254.055 88.5488 253.991 88.2636 253.896 87.9468C253.769 87.6299 253.579 87.2814 253.357 86.9011H256.56ZM259.16 86.9011H260.619L260.587 96.0583L261.729 96.3752L261.824 96.2484L261.792 86.9011H263.631L263.726 86.8061L263.219 85.8238H258.748L258.684 85.9189L259.16 86.9011Z" stroke="#F2F2F2" stroke-width="0.003"/>
<path fill-rule="evenodd" clip-rule="evenodd" d="M233.38 83.7644L234.522 82.6554L235.632 83.7644L234.49 84.9051L233.38 83.7644Z" fill="#F2F2F2" stroke="#F2F2F2" stroke-width="0.00694488"/>
<path fill-rule="evenodd" clip-rule="evenodd" d="M222.504 81.0711L222.948 82.1801C220.221 80.5641 218.223 83.8911 221.87 86.1091H220.76C217.462 83.6376 218.603 79.2967 222.504 81.0711Z" fill="#F2F2F2"/>
</svg>
